{"title":"Resident Evil Extinction (2007) 1080p BluRay {DD 5.1 Triple Audi","uid":9829009,"size":2138062867,"categoryP":"video","categoryS":"hd___movies","magnet":"?xt=urn:btih:731f805e26d75ebe53f3ba072d8e844c31856bf1&amp;dn=Resident+Evil+Extinction+%282007%29+1080p+BluRay+%7BDD+5.1+Triple+Audi&amp;tr=udp%3A%2F%2Ftracker.openbittorrent.com%3A80&amp;tr=udp%3A%2F%2Fopen.demonii.com%3A1337&amp;tr=udp%3A%2F%2Ftracker.coppersurfer.tk%3A6969&amp;tr=udp%3A%2F%2Fexodus.desync.com%3A6969","seeders":1,"leechers":3,"uploader":"SaNRiM","files":-1,"time":1395811527,"description":"Storyline\nYears after the Raccoon City disaster, Alice is on her own; aware that she has become a liability and could endanger those around her, she is struggling to survive and bring down the Umbrella Corporation led by the sinister Albert Wesker and head researcher Dr. Isaacs. Meanwhile, traveling through the Nevada Desert and the ruins of Las Vegas, Carlos Olivera, L.J., and new survivors K-Mart, Claire Redfield, and Nurse Betty must fight to survive extinction against hordes of zombies, killer crows and the most terrifying creatures created as a result of the deadly T-Virus that has killed millions.\n\n\nTorrent Info\n\nGeneral\n\nUnique ID : 180715779409916724804021057729303180563 (0x87F497D55414BE1A837F474979747513)\nComplete name : Resident Evil Extinction (2007) 1080p BluRay ~SaNRiM~.mkv\nFormat : Matroska\nFormat version : Version 4 / Version 2\nFile size : 1.98 GiB\nDuration : 1h 34mn\nOverall bit rate : 3 015 Kbps\nEncoded date : UTC 2014-03-26 03:31:05\nWriting library : libebml v1.3.0 + libmatroska v1.4.1\n\n\nVideo\n\nID : 1\nFormat : AVC\nFormat/Info : Advanced Video Codec\nFormat profile : &lt;a class=&quot;__cf_email__&quot; href=&quot;/cdn-cgi/l/email-protection&quot; data-cfemail=&quot;cf87a6a8a78f83fbe1ff&quot;&gt;[email&amp;#160;protected]&lt;/a&gt;&lt;script cf-hash='f9e31' type=&quot;text/javascript&quot;&gt;\n/* &lt;![CDATA[ */!function(){try{var t=&quot;currentScript&quot;in document?document.currentScript:function(){for(var t=document.getElementsByTagName(&quot;script&quot;),e=t.length;e--;)if(t[e].getAttribute(&quot;cf-hash&quot;))return t[e]}();if(t&amp;&amp;t.previousSibling){var e,r,n,i,c=t.previousSibling,a=c.getAttribute(&quot;data-cfemail&quot;);if(a){for(e=&quot;&quot;,r=parseInt(a.substr(0,2),16),n=2;a.length-n;n+=2)i=parseInt(a.substr(n,2),16)^r,e+=String.fromCharCode(i);e=document.createTextNode(e),c.parentNode.replaceChild(e,c)}}}catch(u){}}();/* ]]&gt; */&lt;/script&gt;\nFormat settings, CABAC : Yes\nFormat settings, ReFrames : 4 frames\nCodec ID : V_MPEG4/ISO/AVC\nDuration : 1h 34mn\nBit rate : 1 663 Kbps\nWidth : 1 920 pixels\nHeight : 800 pixels\nDisplay aspect ratio : 2.40:1\nFrame rate mode : Constant\nFrame rate : 23.976 fps\nColor space : YUV\nChroma subsampling : 4:2:0\nBit depth : 8 bits\nScan type : Progressive\nBits/(Pixel*Frame) : 0.045\nStream size : 1.06 GiB (53%)\nTitle : ~SaNRiM~\nWriting library : x264 core 129 r2230 1cffe9f\nLanguage : English\nDefault : Yes\nForced : No\n\n\nAudio #1\n\nID : 2\nFormat : AC-3\nFormat/Info : Audio Coding 3\nMode extension : CM (complete main)\nFormat settings, Endianness : Big\nCodec ID : A_AC3\nDuration : 1h 34mn\nBit rate mode : Constant\nBit rate : 448 Kbps\nChannel(s) : 6 channels\nChannel positions : Front: L C R, Side: L R, LFE\nSampling rate : 48.0 KHz\nBit depth : 16 bits\nCompression mode : Lossy\nStream size : 302 MiB (15%)\nTitle : ~SaNRiM~\nLanguage : Hindi\nDefault : Yes\nForced : No\n\n\nAudio #2\n\nID : 3\nFormat : AC-3\nFormat/Info : Audio Coding 3\nMode extension : CM (complete main)\nFormat settings, Endianness : Big\nCodec ID : A_AC3\nDuration : 1h 34mn\nBit rate mode : Constant\nBit rate : 448 Kbps\nChannel(s) : 6 channels\nChannel positions : Front: L C R, Side: L R, LFE\nSampling rate : 48.0 KHz\nBit depth : 16 bits\nCompression mode : Lossy\nStream size : 302 MiB (15%)\nTitle : ~SaNRiM~\nLanguage : Tamil\nDefault : No\nForced : No\n\n\nAudio #3\n\nID : 4\nFormat : AC-3\nFormat/Info : Audio Coding 3\nMode extension : CM (complete main)\nFormat settings, Endianness : Big\nCodec ID : A_AC3\nDuration : 1h 34mn\nBit rate mode : Constant\nBit rate : 448 Kbps\nChannel(s) : 6 channels\nChannel positions : Front: L C R, Side: L R, LFE\nSampling rate : 48.0 KHz\nBit depth : 16 bits\nCompression mode : Lossy\nStream size : 302 MiB (15%)\nTitle : ~SaNRiM~\nLanguage : English\nDefault : No\nForced : No\n\n\nText\n\nID : 5\nFormat : PGS\nMuxing mode : zlib\nCodec ID : S_HDMV/PGS\nCodec ID/Info : The same subtitle format used on BDs/HD-DVDs\nTitle : ~SaNRiM~\nLanguage : English\nDefault : No\nForced : No\n\n\n\nScreens\n &lt;a href=&quot;\nhttp://someimage.com/TvVpGz4&quot; rel=&quot;nofollow&quot; target=&quot;_NEW&quot;&gt;\nhttp://someimage.com/TvVpGz4&lt;/a&gt; &lt;a href=&quot;\nhttp://someimage.com/7TAjelc&quot; rel=&quot;nofollow&quot; target=&quot;_NEW&quot;&gt;\nhttp://someimage.com/7TAjelc&lt;/a&gt; &lt;a href=&quot;\nhttp://someimage.com/nGnI9cn&quot; rel=&quot;nofollow&quot; target=&quot;_NEW&quot;&gt;\nhttp://someimage.com/nGnI9cn&lt;/a&gt; &lt;a href=&quot;\nhttp://someimage.com/TRCzb0s&quot; rel=&quot;nofollow&quot; target=&quot;_NEW&quot;&gt;\nhttp://someimage.com/TRCzb0s&lt;/a&gt; &lt;a href=&quot;\nhttp://someimage.com/vXlZZFu&quot; rel=&quot;nofollow&quot; target=&quot;_NEW&quot;&gt;\nhttp://someimage.com/vXlZZFu&lt;/a&gt; &lt;a href=&quot;\nhttp://someimage.com/73pz5i5&quot; rel=&quot;nofollow&quot; target=&quot;_NEW&quot;&gt;\nhttp://someimage.com/73pz5i5&lt;/a&gt; &lt;a href=&quot;\nhttp://someimage.com/5y6r9OG&quot; rel=&quot;nofollow&quot; target=&quot;_NEW&quot;&gt;\nhttp://someimage.com/5y6r9OG&lt;/a&gt; &lt;a href=&quot;\nhttp://someimage.com/mRSeU6a&quot; rel=&quot;nofollow&quot; target=&quot;_NEW&quot;&gt;\nhttp://someimage.com/mRSeU6a&lt;/a&gt; &lt;a href=&quot;\nhttp://someimage.com/fpXXyyF&quot; rel=&quot;nofollow&quot; target=&quot;_NEW&quot;&gt;\nhttp://someimage.com/fpXXyyF&lt;/a&gt; &lt;a href=&quot;\nhttp://someimage.com/YlPam4H&quot; rel=&quot;nofollow&quot; target=&quot;_NEW&quot;&gt;\nhttp://someimage.com/YlPam4H&lt;/a&gt; &lt;a href=&quot;\nhttp://someimage.com/IYsmVZT&quot; rel=&quot;nofollow&quot; target=&quot;_NEW&quot;&gt;\nhttp://someimage.com/IYsmVZT&lt;/a&gt; &lt;a href=&quot;\nhttp://someimage.com/Ne80gJf&quot; rel=&quot;nofollow&quot; target=&quot;_NEW&quot;&gt;\nhttp://someimage.com/Ne80gJf&lt;/a&gt; &lt;a href=&quot;\nhttp://someimage.com/vJsSFIW&quot; rel=&quot;nofollow&quot; target=&quot;_NEW&quot;&gt;\nhttp://someimage.com/vJsSFIW&lt;/a&gt; &lt;a href=&quot;\nhttp://someimage.com/OYlGtCu&quot; rel=&quot;nofollow&quot; target=&quot;_NEW&quot;&gt;\nhttp://someimage.com/OYlGtCu&lt;/a&gt; &lt;a href=&quot;\nhttp://someimage.com/viJAR95&quot; rel=&quot;nofollow&quot; target=&quot;_NEW&quot;&gt;\nhttp://someimage.com/viJAR95&lt;/a&gt; &lt;a href=&quot;\nhttp://someimage.com/ymgBGb0&quot; rel=&quot;nofollow&quot; target=&quot;_NEW&quot;&gt;\nhttp://someimage.com/ymgBGb0&lt;/a&gt; &lt;a href=&quot;\nhttp://someimage.com/xwPTm2o&quot; rel=&quot;nofollow&quot; target=&quot;_NEW&quot;&gt;\nhttp://someimage.com/xwPTm2o&lt;/a&gt; &lt;a href=&quot;\nhttp://someimage.com/bxgsmmN&quot; rel=&quot;nofollow&quot; target=&quot;_NEW&quot;&gt;\nhttp://someimage.com/bxgsmmN&lt;/a&gt; &lt;a href=&quot;\nhttp://someimage.com/hqgplXi&quot; rel=&quot;nofollow&quot; target=&quot;_NEW&quot;&gt;\nhttp://someimage.com/hqgplXi&lt;/a&gt;\n\n\n\n                   A BIG THANKS TO MOHSIN PATHAN FOR AUDIO\n\n\n\n                  If you like my work please comment\n                          Any request? Just PM me\n                       Please seed long after download\n                         Thank you &amp; enjoy the best\n                                 ~SaNRiM~\t","torrent":{"xt":"urn:btih:731f805e26d75ebe53f3ba072d8e844c31856bf1","amp;dn":"Resident+Evil+Extinction+%282007%29+1080p+BluRay+%7BDD+5.1+Triple+Audi","amp;tr":["udp%3A%2F%2Ftracker.openbittorrent.com%3A80","udp%3A%2F%2Fopen.demonii.com%3A1337","udp%3A%2F%2Ftracker.coppersurfer.tk%3A6969","udp%3A%2F%2Fexodus.desync.com%3A6969"],"infoHash":"731f805e26d75ebe53f3ba072d8e844c31856bf1","infoHashBuffer":{"type":"Buffer","data":[115,31,128,94,38,215,94,190,83,243,186,7,45,142,132,76,49,133,107,241]},"announce":[],"urlList":[]}}